<svg id="svg" version="1.1" xmlns="http://www.w3.org/2000/svg" xmlns:xlink="http://www.w3.org/1999/xlink" width="400" height="400" viewBox="0, 0, 400,400"><g id="svgg"><path id="path0" d="M137.500 31.250 L 137.500 37.500 125.000 37.500 L 112.500 37.500 112.500 43.750 L 112.500 50.000 168.750 50.000 L 225.000 50.000 225.000 56.250 L 225.000 62.500 187.500 62.500 L 150.000 62.500 150.000 68.750 L 150.000 75.000 156.250 75.000 L 162.500 75.000 162.500 81.250 L 162.500 87.500 168.750 87.500 L 175.000 87.500 175.000 93.750 L 175.000 100.000 187.500 100.000 L 200.000 100.000 200.000 93.750 L 200.000 87.500 218.750 87.500 L 237.500 87.500 237.500 81.250 L 237.500 75.000 243.750 75.000 L 250.000 75.000 250.000 93.750 L 250.000 112.500 256.250 112.500 L 262.500 112.500 262.500 118.750 L 262.500 125.000 268.750 125.000 L 275.000 125.000 275.000 118.750 L 275.000 112.500 281.250 112.500 L 287.500 112.500 287.500 118.750 L 287.500 125.000 293.750 125.000 L 300.000 125.000 300.000 131.250 L 300.000 137.500 306.250 137.500 L 312.500 137.500 312.500 143.750 L 312.500 150.000 331.250 150.000 L 350.000 150.000 350.000 175.000 L 350.000 200.000 356.250 200.000 L 362.500 200.000 362.500 206.250 L 362.500 212.500 368.750 212.500 L 375.000 212.500 375.000 206.250 L 375.000 200.000 368.750 200.000 L 362.500 200.000 362.500 162.500 L 362.500 125.000 356.250 125.000 L 350.000 125.000 350.000 112.500 L 350.000 100.000 343.750 100.000 L 337.500 100.000 337.500 93.750 L 337.500 87.500 331.250 87.500 L 325.000 87.500 325.000 81.250 L 325.000 75.000 318.750 75.000 L 312.500 75.000 312.500 68.750 L 312.500 62.500 306.250 62.500 L 300.000 62.500 300.000 56.250 L 300.000 50.000 287.500 50.000 L 275.000 50.000 275.000 43.750 L 275.000 37.500 262.500 37.500 L 250.000 37.500 250.000 31.250 L 250.000 25.000 193.750 25.000 L 137.500 25.000 137.500 31.250 M125.000 68.750 L 125.000 75.000 131.250 75.000 L 137.500 75.000 137.500 68.750 L 137.500 62.500 131.250 62.500 L 125.000 62.500 125.000 68.750 M325.000 106.250 L 325.000 112.500 331.250 112.500 L 337.500 112.500 337.500 125.000 L 337.500 137.500 331.250 137.500 L 325.000 137.500 325.000 131.250 L 325.000 125.000 318.750 125.000 L 312.500 125.000 312.500 118.750 L 312.500 112.500 306.250 112.500 L 300.000 112.500 300.000 106.250 L 300.000 100.000 312.500 100.000 L 325.000 100.000 325.000 106.250 M225.000 168.750 L 225.000 175.000 218.750 175.000 L 212.500 175.000 212.500 181.250 L 212.500 187.500 206.250 187.500 L 200.000 187.500 200.000 193.750 L 200.000 200.000 206.250 200.000 L 212.500 200.000 212.500 212.500 L 212.500 225.000 225.000 225.000 L 237.500 225.000 237.500 231.250 L 237.500 237.500 243.750 237.500 L 250.000 237.500 250.000 243.750 L 250.000 250.000 262.500 250.000 L 275.000 250.000 275.000 262.500 L 275.000 275.000 281.250 275.000 L 287.500 275.000 287.500 268.750 L 287.500 262.500 293.750 262.500 L 300.000 262.500 300.000 256.250 L 300.000 250.000 293.750 250.000 L 287.500 250.000 287.500 231.250 L 287.500 212.500 300.000 212.500 L 312.500 212.500 312.500 218.750 L 312.500 225.000 318.750 225.000 L 325.000 225.000 325.000 237.500 L 325.000 250.000 318.750 250.000 L 312.500 250.000 312.500 262.500 L 312.500 275.000 318.750 275.000 L 325.000 275.000 325.000 281.250 L 325.000 287.500 331.250 287.500 L 337.500 287.500 337.500 281.250 L 337.500 275.000 343.750 275.000 L 350.000 275.000 350.000 268.750 L 350.000 262.500 356.250 262.500 L 362.500 262.500 362.500 243.750 L 362.500 225.000 356.250 225.000 L 350.000 225.000 350.000 231.250 L 350.000 237.500 343.750 237.500 L 337.500 237.500 337.500 225.000 L 337.500 212.500 331.250 212.500 L 325.000 212.500 325.000 206.250 L 325.000 200.000 318.750 200.000 L 312.500 200.000 312.500 193.750 L 312.500 187.500 300.000 187.500 L 287.500 187.500 287.500 200.000 L 287.500 212.500 275.000 212.500 L 262.500 212.500 262.500 206.250 L 262.500 200.000 256.250 200.000 L 250.000 200.000 250.000 193.750 L 250.000 187.500 243.750 187.500 L 237.500 187.500 237.500 175.000 L 237.500 162.500 231.250 162.500 L 225.000 162.500 225.000 168.750 M112.500 181.250 L 112.500 187.500 125.000 187.500 L 137.500 187.500 137.500 181.250 L 137.500 175.000 125.000 175.000 L 112.500 175.000 112.500 181.250 M200.000 325.000 L 200.000 337.500 206.250 337.500 L 212.500 337.500 212.500 325.000 L 212.500 312.500 206.250 312.500 L 200.000 312.500 200.000 325.000 " stroke="none" fill="#d1bebb" fill-rule="evenodd"></path><path id="path1" d="M112.500 56.250 L 112.500 62.500 125.000 62.500 L 137.500 62.500 137.500 56.250 L 137.500 50.000 125.000 50.000 L 112.500 50.000 112.500 56.250 M137.500 81.250 L 137.500 87.500 143.750 87.500 L 150.000 87.500 150.000 81.250 L 150.000 75.000 143.750 75.000 L 137.500 75.000 137.500 81.250 M75.000 106.250 L 75.000 112.500 81.250 112.500 L 87.500 112.500 87.500 106.250 L 87.500 100.000 81.250 100.000 L 75.000 100.000 75.000 106.250 M162.500 118.750 L 162.500 125.000 168.750 125.000 L 175.000 125.000 175.000 118.750 L 175.000 112.500 168.750 112.500 L 162.500 112.500 162.500 118.750 M62.500 150.000 L 62.500 162.500 68.750 162.500 L 75.000 162.500 75.000 150.000 L 75.000 137.500 68.750 137.500 L 62.500 137.500 62.500 150.000 M137.500 168.750 L 137.500 175.000 150.000 175.000 L 162.500 175.000 162.500 168.750 L 162.500 162.500 150.000 162.500 L 137.500 162.500 137.500 168.750 M100.000 181.250 L 100.000 187.500 106.250 187.500 L 112.500 187.500 112.500 181.250 L 112.500 175.000 106.250 175.000 L 100.000 175.000 100.000 181.250 M175.000 181.250 L 175.000 187.500 181.250 187.500 L 187.500 187.500 187.500 193.750 L 187.500 200.000 193.750 200.000 L 200.000 200.000 200.000 193.750 L 200.000 187.500 193.750 187.500 L 187.500 187.500 187.500 181.250 L 187.500 175.000 181.250 175.000 L 175.000 175.000 175.000 181.250 M75.000 193.750 L 75.000 200.000 81.250 200.000 L 87.500 200.000 87.500 193.750 L 87.500 187.500 81.250 187.500 L 75.000 187.500 75.000 193.750 M187.500 237.500 L 187.500 250.000 193.750 250.000 L 200.000 250.000 200.000 275.000 L 200.000 300.000 193.750 300.000 L 187.500 300.000 187.500 306.250 L 187.500 312.500 193.750 312.500 L 200.000 312.500 200.000 306.250 L 200.000 300.000 206.250 300.000 L 212.500 300.000 212.500 293.750 L 212.500 287.500 218.750 287.500 L 225.000 287.500 225.000 281.250 L 225.000 275.000 231.250 275.000 L 237.500 275.000 237.500 262.500 L 237.500 250.000 225.000 250.000 L 212.500 250.000 212.500 243.750 L 212.500 237.500 206.250 237.500 L 200.000 237.500 200.000 231.250 L 200.000 225.000 193.750 225.000 L 187.500 225.000 187.500 237.500 M287.500 281.250 L 287.500 287.500 281.250 287.500 L 275.000 287.500 275.000 293.750 L 275.000 300.000 262.500 300.000 L 250.000 300.000 250.000 306.250 L 250.000 312.500 262.500 312.500 L 275.000 312.500 275.000 318.750 L 275.000 325.000 268.750 325.000 L 262.500 325.000 262.500 337.500 L 262.500 350.000 268.750 350.000 L 275.000 350.000 275.000 343.750 L 275.000 337.500 293.750 337.500 L 312.500 337.500 312.500 331.250 L 312.500 325.000 318.750 325.000 L 325.000 325.000 325.000 318.750 L 325.000 312.500 331.250 312.500 L 337.500 312.500 337.500 306.250 L 337.500 300.000 325.000 300.000 L 312.500 300.000 312.500 312.500 L 312.500 325.000 306.250 325.000 L 300.000 325.000 300.000 318.750 L 300.000 312.500 293.750 312.500 L 287.500 312.500 287.500 306.250 L 287.500 300.000 293.750 300.000 L 300.000 300.000 300.000 287.500 L 300.000 275.000 293.750 275.000 L 287.500 275.000 287.500 281.250 M62.500 318.750 L 62.500 325.000 68.750 325.000 L 75.000 325.000 75.000 331.250 L 75.000 337.500 81.250 337.500 L 87.500 337.500 87.500 343.750 L 87.500 350.000 100.000 350.000 L 112.500 350.000 112.500 343.750 L 112.500 337.500 100.000 337.500 L 87.500 337.500 87.500 331.250 L 87.500 325.000 81.250 325.000 L 75.000 325.000 75.000 318.750 L 75.000 312.500 68.750 312.500 L 62.500 312.500 62.500 318.750 M175.000 343.750 L 175.000 362.500 156.250 362.500 L 137.500 362.500 137.500 356.250 L 137.500 350.000 131.250 350.000 L 125.000 350.000 125.000 356.250 L 125.000 362.500 131.250 362.500 L 137.500 362.500 137.500 368.750 L 137.500 375.000 156.250 375.000 L 175.000 375.000 175.000 368.750 L 175.000 362.500 181.250 362.500 L 187.500 362.500 187.500 368.750 L 187.500 375.000 206.250 375.000 L 225.000 375.000 225.000 362.500 L 225.000 350.000 231.250 350.000 L 237.500 350.000 237.500 343.750 L 237.500 337.500 231.250 337.500 L 225.000 337.500 225.000 343.750 L 225.000 350.000 212.500 350.000 L 200.000 350.000 200.000 343.750 L 200.000 337.500 193.750 337.500 L 187.500 337.500 187.500 331.250 L 187.500 325.000 181.250 325.000 L 175.000 325.000 175.000 343.750 " stroke="none" fill="#4580ac" fill-rule="evenodd"></path><path id="path2" d="M0.000 87.500 L 0.000 175.000 6.250 175.000 L 12.500 175.000 12.500 150.000 L 12.500 125.000 18.750 125.000 L 25.000 125.000 25.000 112.500 L 25.000 100.000 31.250 100.000 L 37.500 100.000 37.500 118.750 L 37.500 137.500 31.250 137.500 L 25.000 137.500 25.000 162.500 L 25.000 187.500 18.750 187.500 L 12.500 187.500 12.500 193.750 L 12.500 200.000 18.750 200.000 L 25.000 200.000 25.000 225.000 L 25.000 250.000 31.250 250.000 L 37.500 250.000 37.500 256.250 L 37.500 262.500 43.750 262.500 L 50.000 262.500 50.000 268.750 L 50.000 275.000 56.250 275.000 L 62.500 275.000 62.500 281.250 L 62.500 287.500 68.750 287.500 L 75.000 287.500 75.000 293.750 L 75.000 300.000 81.250 300.000 L 87.500 300.000 87.500 306.250 L 87.500 312.500 100.000 312.500 L 112.500 312.500 112.500 318.750 L 112.500 325.000 125.000 325.000 L 137.500 325.000 137.500 312.500 L 137.500 300.000 162.500 300.000 L 187.500 300.000 187.500 281.250 L 187.500 262.500 181.250 262.500 L 175.000 262.500 175.000 256.250 L 175.000 250.000 156.250 250.000 L 137.500 250.000 137.500 237.500 L 137.500 225.000 131.250 225.000 L 125.000 225.000 125.000 218.750 L 125.000 212.500 93.750 212.500 L 62.500 212.500 62.500 206.250 L 62.500 200.000 68.750 200.000 L 75.000 200.000 75.000 181.250 L 75.000 162.500 81.250 162.500 L 87.500 162.500 87.500 156.250 L 87.500 150.000 93.750 150.000 L 100.000 150.000 100.000 143.750 L 100.000 137.500 106.250 137.500 L 112.500 137.500 112.500 143.750 L 112.500 150.000 125.000 150.000 L 137.500 150.000 137.500 143.750 L 137.500 137.500 131.250 137.500 L 125.000 137.500 125.000 131.250 L 125.000 125.000 131.250 125.000 L 137.500 125.000 137.500 106.250 L 137.500 87.500 118.750 87.500 L 100.000 87.500 100.000 100.000 L 100.000 112.500 87.500 112.500 L 75.000 112.500 75.000 100.000 L 75.000 87.500 62.500 87.500 L 50.000 87.500 50.000 81.250 L 50.000 75.000 56.250 75.000 L 62.500 75.000 62.500 68.750 L 62.500 62.500 68.750 62.500 L 75.000 62.500 75.000 56.250 L 75.000 50.000 81.250 50.000 L 87.500 50.000 87.500 43.750 L 87.500 37.500 93.750 37.500 L 100.000 37.500 100.000 31.250 L 100.000 25.000 118.750 25.000 L 137.500 25.000 137.500 18.750 L 137.500 12.500 193.750 12.500 L 250.000 12.500 250.000 18.750 L 250.000 25.000 268.750 25.000 L 287.500 25.000 287.500 31.250 L 287.500 37.500 293.750 37.500 L 300.000 37.500 300.000 43.750 L 300.000 50.000 306.250 50.000 L 312.500 50.000 312.500 56.250 L 312.500 62.500 325.000 62.500 L 337.500 62.500 337.500 75.000 L 337.500 87.500 343.750 87.500 L 350.000 87.500 350.000 93.750 L 350.000 100.000 356.250 100.000 L 362.500 100.000 362.500 112.500 L 362.500 125.000 368.750 125.000 L 375.000 125.000 375.000 143.750 L 375.000 162.500 381.250 162.500 L 387.500 162.500 387.500 200.000 L 387.500 237.500 381.250 237.500 L 375.000 237.500 375.000 256.250 L 375.000 275.000 368.750 275.000 L 362.500 275.000 362.500 287.500 L 362.500 300.000 356.250 300.000 L 350.000 300.000 350.000 306.250 L 350.000 312.500 343.750 312.500 L 337.500 312.500 337.500 318.750 L 337.500 325.000 331.250 325.000 L 325.000 325.000 325.000 331.250 L 325.000 337.500 318.750 337.500 L 312.500 337.500 312.500 343.750 L 312.500 350.000 306.250 350.000 L 300.000 350.000 300.000 356.250 L 300.000 362.500 287.500 362.500 L 275.000 362.500 275.000 368.750 L 275.000 375.000 256.250 375.000 L 237.500 375.000 237.500 381.250 L 237.500 387.500 193.750 387.500 L 150.000 387.500 150.000 381.250 L 150.000 375.000 131.250 375.000 L 112.500 375.000 112.500 368.750 L 112.500 362.500 100.000 362.500 L 87.500 362.500 87.500 356.250 L 87.500 350.000 81.250 350.000 L 75.000 350.000 75.000 343.750 L 75.000 337.500 68.750 337.500 L 62.500 337.500 62.500 331.250 L 62.500 325.000 56.250 325.000 L 50.000 325.000 50.000 318.750 L 50.000 312.500 43.750 312.500 L 37.500 312.500 37.500 300.000 L 37.500 287.500 31.250 287.500 L 25.000 287.500 25.000 275.000 L 25.000 262.500 18.750 262.500 L 12.500 262.500 12.500 237.500 L 12.500 212.500 6.250 212.500 L 0.000 212.500 0.000 306.250 L 0.000 400.000 200.000 400.000 L 400.000 400.000 400.000 200.000 L 400.000 0.000 200.000 0.000 L 0.000 0.000 0.000 87.500 M75.000 31.250 L 75.000 37.500 68.750 37.500 L 62.500 37.500 62.500 31.250 L 62.500 25.000 68.750 25.000 L 75.000 25.000 75.000 31.250 M50.000 93.750 L 50.000 100.000 43.750 100.000 L 37.500 100.000 37.500 93.750 L 37.500 87.500 43.750 87.500 L 50.000 87.500 50.000 93.750 M87.500 137.500 L 87.500 150.000 81.250 150.000 L 75.000 150.000 75.000 156.250 L 75.000 162.500 62.500 162.500 L 50.000 162.500 50.000 156.250 L 50.000 150.000 56.250 150.000 L 62.500 150.000 62.500 143.750 L 62.500 137.500 68.750 137.500 L 75.000 137.500 75.000 131.250 L 75.000 125.000 81.250 125.000 L 87.500 125.000 87.500 137.500 M250.000 137.500 L 250.000 150.000 243.750 150.000 L 237.500 150.000 237.500 156.250 L 237.500 162.500 243.750 162.500 L 250.000 162.500 250.000 175.000 L 250.000 187.500 262.500 187.500 L 275.000 187.500 275.000 181.250 L 275.000 175.000 281.250 175.000 L 287.500 175.000 287.500 168.750 L 287.500 162.500 293.750 162.500 L 300.000 162.500 300.000 150.000 L 300.000 137.500 287.500 137.500 L 275.000 137.500 275.000 143.750 L 275.000 150.000 268.750 150.000 L 262.500 150.000 262.500 137.500 L 262.500 125.000 256.250 125.000 L 250.000 125.000 250.000 137.500 M187.500 156.250 L 187.500 162.500 193.750 162.500 L 200.000 162.500 200.000 156.250 L 200.000 150.000 193.750 150.000 L 187.500 150.000 187.500 156.250 M312.500 175.000 L 312.500 187.500 325.000 187.500 L 337.500 187.500 337.500 175.000 L 337.500 162.500 325.000 162.500 L 312.500 162.500 312.500 175.000 M162.500 181.250 L 162.500 187.500 150.000 187.500 L 137.500 187.500 137.500 200.000 L 137.500 212.500 143.750 212.500 L 150.000 212.500 150.000 218.750 L 150.000 225.000 156.250 225.000 L 162.500 225.000 162.500 218.750 L 162.500 212.500 168.750 212.500 L 175.000 212.500 175.000 193.750 L 175.000 175.000 168.750 175.000 L 162.500 175.000 162.500 181.250 M100.000 287.500 L 100.000 300.000 93.750 300.000 L 87.500 300.000 87.500 287.500 L 87.500 275.000 93.750 275.000 L 100.000 275.000 100.000 287.500 M137.500 293.750 L 137.500 300.000 131.250 300.000 L 125.000 300.000 125.000 293.750 L 125.000 287.500 131.250 287.500 L 137.500 287.500 137.500 293.750 " stroke="none" fill="#0c1c40" fill-rule="evenodd"></path><path id="path3" d="M100.000 56.250 L 100.000 62.500 106.250 62.500 L 112.500 62.500 112.500 56.250 L 112.500 50.000 106.250 50.000 L 100.000 50.000 100.000 56.250 M162.500 131.250 L 162.500 137.500 168.750 137.500 L 175.000 137.500 175.000 131.250 L 175.000 125.000 168.750 125.000 L 162.500 125.000 162.500 131.250 M112.500 168.750 L 112.500 175.000 125.000 175.000 L 137.500 175.000 137.500 168.750 L 137.500 162.500 125.000 162.500 L 112.500 162.500 112.500 168.750 M187.500 181.250 L 187.500 187.500 193.750 187.500 L 200.000 187.500 200.000 181.250 L 200.000 175.000 193.750 175.000 L 187.500 175.000 187.500 181.250 M112.500 193.750 L 112.500 200.000 118.750 200.000 L 125.000 200.000 125.000 193.750 L 125.000 187.500 118.750 187.500 L 112.500 187.500 112.500 193.750 M75.000 206.250 L 75.000 212.500 81.250 212.500 L 87.500 212.500 87.500 206.250 L 87.500 200.000 81.250 200.000 L 75.000 200.000 75.000 206.250 M200.000 206.250 L 200.000 212.500 187.500 212.500 L 175.000 212.500 175.000 225.000 L 175.000 237.500 181.250 237.500 L 187.500 237.500 187.500 231.250 L 187.500 225.000 193.750 225.000 L 200.000 225.000 200.000 231.250 L 200.000 237.500 206.250 237.500 L 212.500 237.500 212.500 243.750 L 212.500 250.000 225.000 250.000 L 237.500 250.000 237.500 262.500 L 237.500 275.000 231.250 275.000 L 225.000 275.000 225.000 281.250 L 225.000 287.500 218.750 287.500 L 212.500 287.500 212.500 293.750 L 212.500 300.000 206.250 300.000 L 200.000 300.000 200.000 306.250 L 200.000 312.500 187.500 312.500 L 175.000 312.500 175.000 318.750 L 175.000 325.000 181.250 325.000 L 187.500 325.000 187.500 331.250 L 187.500 337.500 193.750 337.500 L 200.000 337.500 200.000 343.750 L 200.000 350.000 212.500 350.000 L 225.000 350.000 225.000 343.750 L 225.000 337.500 237.500 337.500 L 250.000 337.500 250.000 318.750 L 250.000 300.000 262.500 300.000 L 275.000 300.000 275.000 293.750 L 275.000 287.500 281.250 287.500 L 287.500 287.500 287.500 281.250 L 287.500 275.000 275.000 275.000 L 262.500 275.000 262.500 262.500 L 262.500 250.000 250.000 250.000 L 237.500 250.000 237.500 237.500 L 237.500 225.000 225.000 225.000 L 212.500 225.000 212.500 212.500 L 212.500 200.000 206.250 200.000 L 200.000 200.000 200.000 206.250 M300.000 287.500 L 300.000 300.000 293.750 300.000 L 287.500 300.000 287.500 306.250 L 287.500 312.500 293.750 312.500 L 300.000 312.500 300.000 318.750 L 300.000 325.000 306.250 325.000 L 312.500 325.000 312.500 312.500 L 312.500 300.000 325.000 300.000 L 337.500 300.000 337.500 293.750 L 337.500 287.500 343.750 287.500 L 350.000 287.500 350.000 281.250 L 350.000 275.000 343.750 275.000 L 337.500 275.000 337.500 281.250 L 337.500 287.500 331.250 287.500 L 325.000 287.500 325.000 281.250 L 325.000 275.000 312.500 275.000 L 300.000 275.000 300.000 287.500 M212.500 325.000 L 212.500 337.500 206.250 337.500 L 200.000 337.500 200.000 325.000 L 200.000 312.500 206.250 312.500 L 212.500 312.500 212.500 325.000 M112.500 356.250 L 112.500 362.500 118.750 362.500 L 125.000 362.500 125.000 356.250 L 125.000 350.000 118.750 350.000 L 112.500 350.000 112.500 356.250 " stroke="none" fill="#65a7c5" fill-rule="evenodd"></path><path id="path4" d="M162.500 18.750 L 162.500 25.000 193.750 25.000 L 225.000 25.000 225.000 18.750 L 225.000 12.500 193.750 12.500 L 162.500 12.500 162.500 18.750 M125.000 31.250 L 125.000 37.500 131.250 37.500 L 137.500 37.500 137.500 31.250 L 137.500 25.000 131.250 25.000 L 125.000 25.000 125.000 31.250 M100.000 43.750 L 100.000 50.000 93.750 50.000 L 87.500 50.000 87.500 56.250 L 87.500 62.500 81.250 62.500 L 75.000 62.500 75.000 68.750 L 75.000 75.000 93.750 75.000 L 112.500 75.000 112.500 68.750 L 112.500 62.500 106.250 62.500 L 100.000 62.500 100.000 56.250 L 100.000 50.000 106.250 50.000 L 112.500 50.000 112.500 43.750 L 112.500 37.500 106.250 37.500 L 100.000 37.500 100.000 43.750 M300.000 56.250 L 300.000 62.500 306.250 62.500 L 312.500 62.500 312.500 68.750 L 312.500 75.000 318.750 75.000 L 325.000 75.000 325.000 81.250 L 325.000 87.500 331.250 87.500 L 337.500 87.500 337.500 81.250 L 337.500 75.000 331.250 75.000 L 325.000 75.000 325.000 68.750 L 325.000 62.500 318.750 62.500 L 312.500 62.500 312.500 56.250 L 312.500 50.000 306.250 50.000 L 300.000 50.000 300.000 56.250 M75.000 93.750 L 75.000 100.000 81.250 100.000 L 87.500 100.000 87.500 93.750 L 87.500 87.500 81.250 87.500 L 75.000 87.500 75.000 93.750 M212.500 93.750 L 212.500 100.000 218.750 100.000 L 225.000 100.000 225.000 106.250 L 225.000 112.500 231.250 112.500 L 237.500 112.500 237.500 100.000 L 237.500 87.500 225.000 87.500 L 212.500 87.500 212.500 93.750 M162.500 106.250 L 162.500 112.500 168.750 112.500 L 175.000 112.500 175.000 106.250 L 175.000 100.000 168.750 100.000 L 162.500 100.000 162.500 106.250 M325.000 118.750 L 325.000 125.000 331.250 125.000 L 337.500 125.000 337.500 118.750 L 337.500 112.500 331.250 112.500 L 325.000 112.500 325.000 118.750 M350.000 118.750 L 350.000 125.000 356.250 125.000 L 362.500 125.000 362.500 118.750 L 362.500 112.500 356.250 112.500 L 350.000 112.500 350.000 118.750 M150.000 131.250 L 150.000 137.500 156.250 137.500 L 162.500 137.500 162.500 131.250 L 162.500 125.000 156.250 125.000 L 150.000 125.000 150.000 131.250 M100.000 162.500 L 100.000 175.000 106.250 175.000 L 112.500 175.000 112.500 162.500 L 112.500 150.000 106.250 150.000 L 100.000 150.000 100.000 162.500 M162.500 156.250 L 162.500 162.500 168.750 162.500 L 175.000 162.500 175.000 156.250 L 175.000 150.000 168.750 150.000 L 162.500 150.000 162.500 156.250 M300.000 162.500 L 300.000 175.000 306.250 175.000 L 312.500 175.000 312.500 162.500 L 312.500 150.000 306.250 150.000 L 300.000 150.000 300.000 162.500 M362.500 156.250 L 362.500 162.500 368.750 162.500 L 375.000 162.500 375.000 156.250 L 375.000 150.000 368.750 150.000 L 362.500 150.000 362.500 156.250 M137.500 181.250 L 137.500 187.500 143.750 187.500 L 150.000 187.500 150.000 181.250 L 150.000 175.000 143.750 175.000 L 137.500 175.000 137.500 181.250 M100.000 193.750 L 100.000 200.000 106.250 200.000 L 112.500 200.000 112.500 206.250 L 112.500 212.500 118.750 212.500 L 125.000 212.500 125.000 206.250 L 125.000 200.000 118.750 200.000 L 112.500 200.000 112.500 193.750 L 112.500 187.500 106.250 187.500 L 100.000 187.500 100.000 193.750 M275.000 193.750 L 275.000 200.000 281.250 200.000 L 287.500 200.000 287.500 193.750 L 287.500 187.500 281.250 187.500 L 275.000 187.500 275.000 193.750 M325.000 206.250 L 325.000 212.500 337.500 212.500 L 350.000 212.500 350.000 206.250 L 350.000 200.000 337.500 200.000 L 325.000 200.000 325.000 206.250 M300.000 218.750 L 300.000 225.000 306.250 225.000 L 312.500 225.000 312.500 218.750 L 312.500 212.500 306.250 212.500 L 300.000 212.500 300.000 218.750 M162.500 231.250 L 162.500 237.500 168.750 237.500 L 175.000 237.500 175.000 231.250 L 175.000 225.000 168.750 225.000 L 162.500 225.000 162.500 231.250 M362.500 243.750 L 362.500 250.000 368.750 250.000 L 375.000 250.000 375.000 243.750 L 375.000 237.500 368.750 237.500 L 362.500 237.500 362.500 243.750 M187.500 256.250 L 187.500 262.500 193.750 262.500 L 200.000 262.500 200.000 256.250 L 200.000 250.000 193.750 250.000 L 187.500 250.000 187.500 256.250 M337.500 293.750 L 337.500 300.000 343.750 300.000 L 350.000 300.000 350.000 293.750 L 350.000 287.500 343.750 287.500 L 337.500 287.500 337.500 293.750 M50.000 306.250 L 50.000 312.500 56.250 312.500 L 62.500 312.500 62.500 306.250 L 62.500 300.000 56.250 300.000 L 50.000 300.000 50.000 306.250 M162.500 325.000 L 162.500 337.500 168.750 337.500 L 175.000 337.500 175.000 325.000 L 175.000 312.500 168.750 312.500 L 162.500 312.500 162.500 325.000 M250.000 325.000 L 250.000 337.500 256.250 337.500 L 262.500 337.500 262.500 325.000 L 262.500 312.500 256.250 312.500 L 250.000 312.500 250.000 325.000 M87.500 331.250 L 87.500 337.500 93.750 337.500 L 100.000 337.500 100.000 331.250 L 100.000 325.000 93.750 325.000 L 87.500 325.000 87.500 331.250 M100.000 356.250 L 100.000 362.500 106.250 362.500 L 112.500 362.500 112.500 356.250 L 112.500 350.000 106.250 350.000 L 100.000 350.000 100.000 356.250 M137.500 356.250 L 137.500 362.500 143.750 362.500 L 150.000 362.500 150.000 356.250 L 150.000 350.000 143.750 350.000 L 137.500 350.000 137.500 356.250 M175.000 368.750 L 175.000 375.000 181.250 375.000 L 187.500 375.000 187.500 368.750 L 187.500 362.500 181.250 362.500 L 175.000 362.500 175.000 368.750 " stroke="none" fill="#42668d" fill-rule="evenodd"></path><path id="path5" d="M262.500 31.250 L 262.500 37.500 268.750 37.500 L 275.000 37.500 275.000 31.250 L 275.000 25.000 268.750 25.000 L 262.500 25.000 262.500 31.250 M75.000 81.250 L 75.000 87.500 81.250 87.500 L 87.500 87.500 87.500 81.250 L 87.500 75.000 81.250 75.000 L 75.000 75.000 75.000 81.250 M150.000 93.750 L 150.000 100.000 156.250 100.000 L 162.500 100.000 162.500 93.750 L 162.500 87.500 156.250 87.500 L 150.000 87.500 150.000 93.750 M337.500 93.750 L 337.500 100.000 343.750 100.000 L 350.000 100.000 350.000 93.750 L 350.000 87.500 343.750 87.500 L 337.500 87.500 337.500 93.750 M200.000 106.250 L 200.000 112.500 212.500 112.500 L 225.000 112.500 225.000 125.000 L 225.000 137.500 218.750 137.500 L 212.500 137.500 212.500 143.750 L 212.500 150.000 218.750 150.000 L 225.000 150.000 225.000 143.750 L 225.000 137.500 231.250 137.500 L 237.500 137.500 237.500 125.000 L 237.500 112.500 243.750 112.500 L 250.000 112.500 250.000 106.250 L 250.000 100.000 243.750 100.000 L 237.500 100.000 237.500 106.250 L 237.500 112.500 231.250 112.500 L 225.000 112.500 225.000 106.250 L 225.000 100.000 212.500 100.000 L 200.000 100.000 200.000 106.250 M312.500 106.250 L 312.500 112.500 318.750 112.500 L 325.000 112.500 325.000 106.250 L 325.000 100.000 318.750 100.000 L 312.500 100.000 312.500 106.250 M137.500 131.250 L 137.500 137.500 143.750 137.500 L 150.000 137.500 150.000 131.250 L 150.000 125.000 143.750 125.000 L 137.500 125.000 137.500 131.250 M75.000 143.750 L 75.000 150.000 81.250 150.000 L 87.500 150.000 87.500 143.750 L 87.500 137.500 81.250 137.500 L 75.000 137.500 75.000 143.750 M162.500 143.750 L 162.500 150.000 137.500 150.000 L 112.500 150.000 112.500 156.250 L 112.500 162.500 137.500 162.500 L 162.500 162.500 162.500 156.250 L 162.500 150.000 168.750 150.000 L 175.000 150.000 175.000 143.750 L 175.000 137.500 168.750 137.500 L 162.500 137.500 162.500 143.750 M362.500 143.750 L 362.500 150.000 368.750 150.000 L 375.000 150.000 375.000 143.750 L 375.000 137.500 368.750 137.500 L 362.500 137.500 362.500 143.750 M187.500 168.750 L 187.500 175.000 193.750 175.000 L 200.000 175.000 200.000 168.750 L 200.000 162.500 193.750 162.500 L 187.500 162.500 187.500 168.750 M75.000 181.250 L 75.000 187.500 81.250 187.500 L 87.500 187.500 87.500 200.000 L 87.500 212.500 100.000 212.500 L 112.500 212.500 112.500 206.250 L 112.500 200.000 106.250 200.000 L 100.000 200.000 100.000 193.750 L 100.000 187.500 93.750 187.500 L 87.500 187.500 87.500 181.250 L 87.500 175.000 81.250 175.000 L 75.000 175.000 75.000 181.250 M125.000 200.000 L 125.000 212.500 131.250 212.500 L 137.500 212.500 137.500 200.000 L 137.500 187.500 131.250 187.500 L 125.000 187.500 125.000 200.000 M325.000 193.750 L 325.000 200.000 331.250 200.000 L 337.500 200.000 337.500 193.750 L 337.500 187.500 331.250 187.500 L 325.000 187.500 325.000 193.750 M175.000 206.250 L 175.000 212.500 168.750 212.500 L 162.500 212.500 162.500 218.750 L 162.500 225.000 168.750 225.000 L 175.000 225.000 175.000 218.750 L 175.000 212.500 187.500 212.500 L 200.000 212.500 200.000 206.250 L 200.000 200.000 187.500 200.000 L 175.000 200.000 175.000 206.250 M300.000 231.250 L 300.000 237.500 306.250 237.500 L 312.500 237.500 312.500 231.250 L 312.500 225.000 306.250 225.000 L 300.000 225.000 300.000 231.250 M175.000 250.000 L 175.000 262.500 181.250 262.500 L 187.500 262.500 187.500 268.750 L 187.500 275.000 193.750 275.000 L 200.000 275.000 200.000 268.750 L 200.000 262.500 193.750 262.500 L 187.500 262.500 187.500 250.000 L 187.500 237.500 181.250 237.500 L 175.000 237.500 175.000 250.000 M25.000 268.750 L 25.000 275.000 31.250 275.000 L 37.500 275.000 37.500 268.750 L 37.500 262.500 31.250 262.500 L 25.000 262.500 25.000 268.750 M350.000 281.250 L 350.000 287.500 356.250 287.500 L 362.500 287.500 362.500 281.250 L 362.500 275.000 356.250 275.000 L 350.000 275.000 350.000 281.250 M37.500 293.750 L 37.500 300.000 50.000 300.000 L 62.500 300.000 62.500 306.250 L 62.500 312.500 68.750 312.500 L 75.000 312.500 75.000 318.750 L 75.000 325.000 87.500 325.000 L 100.000 325.000 100.000 331.250 L 100.000 337.500 106.250 337.500 L 112.500 337.500 112.500 343.750 L 112.500 350.000 131.250 350.000 L 150.000 350.000 150.000 356.250 L 150.000 362.500 156.250 362.500 L 162.500 362.500 162.500 356.250 L 162.500 350.000 168.750 350.000 L 175.000 350.000 175.000 343.750 L 175.000 337.500 168.750 337.500 L 162.500 337.500 162.500 318.750 L 162.500 300.000 156.250 300.000 L 150.000 300.000 150.000 312.500 L 150.000 325.000 143.750 325.000 L 137.500 325.000 137.500 331.250 L 137.500 337.500 125.000 337.500 L 112.500 337.500 112.500 331.250 L 112.500 325.000 106.250 325.000 L 100.000 325.000 100.000 318.750 L 100.000 312.500 87.500 312.500 L 75.000 312.500 75.000 306.250 L 75.000 300.000 68.750 300.000 L 62.500 300.000 62.500 293.750 L 62.500 287.500 50.000 287.500 L 37.500 287.500 37.500 293.750 M262.500 318.750 L 262.500 325.000 268.750 325.000 L 275.000 325.000 275.000 318.750 L 275.000 312.500 268.750 312.500 L 262.500 312.500 262.500 318.750 M237.500 343.750 L 237.500 350.000 231.250 350.000 L 225.000 350.000 225.000 362.500 L 225.000 375.000 237.500 375.000 L 250.000 375.000 250.000 368.750 L 250.000 362.500 268.750 362.500 L 287.500 362.500 287.500 356.250 L 287.500 350.000 293.750 350.000 L 300.000 350.000 300.000 343.750 L 300.000 337.500 287.500 337.500 L 275.000 337.500 275.000 343.750 L 275.000 350.000 268.750 350.000 L 262.500 350.000 262.500 343.750 L 262.500 337.500 250.000 337.500 L 237.500 337.500 237.500 343.750 M125.000 368.750 L 125.000 375.000 131.250 375.000 L 137.500 375.000 137.500 368.750 L 137.500 362.500 131.250 362.500 L 125.000 362.500 125.000 368.750 " stroke="none" fill="#1c4b7c" fill-rule="evenodd"></path><path id="path6" d="M250.000 31.250 L 250.000 37.500 256.250 37.500 L 262.500 37.500 262.500 31.250 L 262.500 25.000 256.250 25.000 L 250.000 25.000 250.000 31.250 M275.000 43.750 L 275.000 50.000 281.250 50.000 L 287.500 50.000 287.500 43.750 L 287.500 37.500 281.250 37.500 L 275.000 37.500 275.000 43.750 M137.500 62.500 L 137.500 75.000 143.750 75.000 L 150.000 75.000 150.000 81.250 L 150.000 87.500 156.250 87.500 L 162.500 87.500 162.500 93.750 L 162.500 100.000 168.750 100.000 L 175.000 100.000 175.000 125.000 L 175.000 150.000 181.250 150.000 L 187.500 150.000 187.500 143.750 L 187.500 137.500 193.750 137.500 L 200.000 137.500 200.000 118.750 L 200.000 100.000 206.250 100.000 L 212.500 100.000 212.500 93.750 L 212.500 87.500 206.250 87.500 L 200.000 87.500 200.000 93.750 L 200.000 100.000 187.500 100.000 L 175.000 100.000 175.000 93.750 L 175.000 87.500 168.750 87.500 L 162.500 87.500 162.500 81.250 L 162.500 75.000 156.250 75.000 L 150.000 75.000 150.000 68.750 L 150.000 62.500 187.500 62.500 L 225.000 62.500 225.000 56.250 L 225.000 50.000 181.250 50.000 L 137.500 50.000 137.500 62.500 M112.500 68.750 L 112.500 75.000 100.000 75.000 L 87.500 75.000 87.500 87.500 L 87.500 100.000 93.750 100.000 L 100.000 100.000 100.000 93.750 L 100.000 87.500 106.250 87.500 L 112.500 87.500 112.500 81.250 L 112.500 75.000 118.750 75.000 L 125.000 75.000 125.000 68.750 L 125.000 62.500 118.750 62.500 L 112.500 62.500 112.500 68.750 M237.500 87.500 L 237.500 100.000 243.750 100.000 L 250.000 100.000 250.000 87.500 L 250.000 75.000 243.750 75.000 L 237.500 75.000 237.500 87.500 M300.000 106.250 L 300.000 112.500 306.250 112.500 L 312.500 112.500 312.500 106.250 L 312.500 100.000 306.250 100.000 L 300.000 100.000 300.000 106.250 M275.000 118.750 L 275.000 125.000 281.250 125.000 L 287.500 125.000 287.500 131.250 L 287.500 137.500 293.750 137.500 L 300.000 137.500 300.000 143.750 L 300.000 150.000 306.250 150.000 L 312.500 150.000 312.500 143.750 L 312.500 137.500 306.250 137.500 L 300.000 137.500 300.000 131.250 L 300.000 125.000 293.750 125.000 L 287.500 125.000 287.500 118.750 L 287.500 112.500 281.250 112.500 L 275.000 112.500 275.000 118.750 M325.000 131.250 L 325.000 137.500 331.250 137.500 L 337.500 137.500 337.500 131.250 L 337.500 125.000 331.250 125.000 L 325.000 125.000 325.000 131.250 M225.000 150.000 L 225.000 162.500 231.250 162.500 L 237.500 162.500 237.500 150.000 L 237.500 137.500 231.250 137.500 L 225.000 137.500 225.000 150.000 M325.000 156.250 L 325.000 162.500 337.500 162.500 L 350.000 162.500 350.000 156.250 L 350.000 150.000 337.500 150.000 L 325.000 150.000 325.000 156.250 M362.500 181.250 L 362.500 200.000 356.250 200.000 L 350.000 200.000 350.000 193.750 L 350.000 187.500 343.750 187.500 L 337.500 187.500 337.500 193.750 L 337.500 200.000 343.750 200.000 L 350.000 200.000 350.000 206.250 L 350.000 212.500 343.750 212.500 L 337.500 212.500 337.500 225.000 L 337.500 237.500 343.750 237.500 L 350.000 237.500 350.000 231.250 L 350.000 225.000 356.250 225.000 L 362.500 225.000 362.500 231.250 L 362.500 237.500 368.750 237.500 L 375.000 237.500 375.000 225.000 L 375.000 212.500 368.750 212.500 L 362.500 212.500 362.500 206.250 L 362.500 200.000 368.750 200.000 L 375.000 200.000 375.000 181.250 L 375.000 162.500 368.750 162.500 L 362.500 162.500 362.500 181.250 M200.000 181.250 L 200.000 187.500 206.250 187.500 L 212.500 187.500 212.500 181.250 L 212.500 175.000 206.250 175.000 L 200.000 175.000 200.000 181.250 M287.500 181.250 L 287.500 187.500 300.000 187.500 L 312.500 187.500 312.500 181.250 L 312.500 175.000 300.000 175.000 L 287.500 175.000 287.500 181.250 M250.000 193.750 L 250.000 200.000 256.250 200.000 L 262.500 200.000 262.500 206.250 L 262.500 212.500 275.000 212.500 L 287.500 212.500 287.500 206.250 L 287.500 200.000 275.000 200.000 L 262.500 200.000 262.500 193.750 L 262.500 187.500 256.250 187.500 L 250.000 187.500 250.000 193.750 M312.500 231.250 L 312.500 237.500 300.000 237.500 L 287.500 237.500 287.500 243.750 L 287.500 250.000 293.750 250.000 L 300.000 250.000 300.000 256.250 L 300.000 262.500 293.750 262.500 L 287.500 262.500 287.500 268.750 L 287.500 275.000 300.000 275.000 L 312.500 275.000 312.500 262.500 L 312.500 250.000 318.750 250.000 L 325.000 250.000 325.000 237.500 L 325.000 225.000 318.750 225.000 L 312.500 225.000 312.500 231.250 M237.500 243.750 L 237.500 250.000 243.750 250.000 L 250.000 250.000 250.000 243.750 L 250.000 237.500 243.750 237.500 L 237.500 237.500 237.500 243.750 M262.500 262.500 L 262.500 275.000 268.750 275.000 L 275.000 275.000 275.000 262.500 L 275.000 250.000 268.750 250.000 L 262.500 250.000 262.500 262.500 M350.000 268.750 L 350.000 275.000 356.250 275.000 L 362.500 275.000 362.500 268.750 L 362.500 262.500 356.250 262.500 L 350.000 262.500 350.000 268.750 " stroke="none" fill="#947ca6" fill-rule="evenodd"></path><path id="path7" d="M137.500 18.750 L 137.500 25.000 150.000 25.000 L 162.500 25.000 162.500 18.750 L 162.500 12.500 150.000 12.500 L 137.500 12.500 137.500 18.750 M225.000 18.750 L 225.000 25.000 237.500 25.000 L 250.000 25.000 250.000 18.750 L 250.000 12.500 237.500 12.500 L 225.000 12.500 225.000 18.750 M100.000 31.250 L 100.000 37.500 93.750 37.500 L 87.500 37.500 87.500 43.750 L 87.500 50.000 81.250 50.000 L 75.000 50.000 75.000 56.250 L 75.000 62.500 68.750 62.500 L 62.500 62.500 62.500 68.750 L 62.500 75.000 56.250 75.000 L 50.000 75.000 50.000 81.250 L 50.000 87.500 43.750 87.500 L 37.500 87.500 37.500 93.750 L 37.500 100.000 31.250 100.000 L 25.000 100.000 25.000 112.500 L 25.000 125.000 18.750 125.000 L 12.500 125.000 12.500 150.000 L 12.500 175.000 6.250 175.000 L 0.000 175.000 0.000 193.750 L 0.000 212.500 6.250 212.500 L 12.500 212.500 12.500 237.500 L 12.500 262.500 25.000 262.500 L 37.500 262.500 37.500 268.750 L 37.500 275.000 31.250 275.000 L 25.000 275.000 25.000 281.250 L 25.000 287.500 43.750 287.500 L 62.500 287.500 62.500 293.750 L 62.500 300.000 68.750 300.000 L 75.000 300.000 75.000 306.250 L 75.000 312.500 81.250 312.500 L 87.500 312.500 87.500 306.250 L 87.500 300.000 93.750 300.000 L 100.000 300.000 100.000 287.500 L 100.000 275.000 93.750 275.000 L 87.500 275.000 87.500 287.500 L 87.500 300.000 81.250 300.000 L 75.000 300.000 75.000 293.750 L 75.000 287.500 68.750 287.500 L 62.500 287.500 62.500 281.250 L 62.500 275.000 56.250 275.000 L 50.000 275.000 50.000 268.750 L 50.000 262.500 43.750 262.500 L 37.500 262.500 37.500 256.250 L 37.500 250.000 31.250 250.000 L 25.000 250.000 25.000 225.000 L 25.000 200.000 18.750 200.000 L 12.500 200.000 12.500 193.750 L 12.500 187.500 18.750 187.500 L 25.000 187.500 25.000 162.500 L 25.000 137.500 31.250 137.500 L 37.500 137.500 37.500 118.750 L 37.500 100.000 43.750 100.000 L 50.000 100.000 50.000 93.750 L 50.000 87.500 62.500 87.500 L 75.000 87.500 75.000 75.000 L 75.000 62.500 81.250 62.500 L 87.500 62.500 87.500 56.250 L 87.500 50.000 93.750 50.000 L 100.000 50.000 100.000 43.750 L 100.000 37.500 112.500 37.500 L 125.000 37.500 125.000 31.250 L 125.000 25.000 112.500 25.000 L 100.000 25.000 100.000 31.250 M275.000 31.250 L 275.000 37.500 281.250 37.500 L 287.500 37.500 287.500 43.750 L 287.500 50.000 293.750 50.000 L 300.000 50.000 300.000 43.750 L 300.000 37.500 293.750 37.500 L 287.500 37.500 287.500 31.250 L 287.500 25.000 281.250 25.000 L 275.000 25.000 275.000 31.250 M325.000 68.750 L 325.000 75.000 331.250 75.000 L 337.500 75.000 337.500 68.750 L 337.500 62.500 331.250 62.500 L 325.000 62.500 325.000 68.750 M137.500 106.250 L 137.500 125.000 131.250 125.000 L 125.000 125.000 125.000 131.250 L 125.000 137.500 131.250 137.500 L 137.500 137.500 137.500 143.750 L 137.500 150.000 150.000 150.000 L 162.500 150.000 162.500 143.750 L 162.500 137.500 150.000 137.500 L 137.500 137.500 137.500 131.250 L 137.500 125.000 150.000 125.000 L 162.500 125.000 162.500 112.500 L 162.500 100.000 156.250 100.000 L 150.000 100.000 150.000 93.750 L 150.000 87.500 143.750 87.500 L 137.500 87.500 137.500 106.250 M350.000 106.250 L 350.000 112.500 356.250 112.500 L 362.500 112.500 362.500 106.250 L 362.500 100.000 356.250 100.000 L 350.000 100.000 350.000 106.250 M200.000 143.750 L 200.000 175.000 212.500 175.000 L 225.000 175.000 225.000 168.750 L 225.000 162.500 218.750 162.500 L 212.500 162.500 212.500 150.000 L 212.500 137.500 218.750 137.500 L 225.000 137.500 225.000 125.000 L 225.000 112.500 212.500 112.500 L 200.000 112.500 200.000 143.750 M237.500 131.250 L 237.500 150.000 243.750 150.000 L 250.000 150.000 250.000 131.250 L 250.000 112.500 243.750 112.500 L 237.500 112.500 237.500 131.250 M312.500 118.750 L 312.500 125.000 318.750 125.000 L 325.000 125.000 325.000 118.750 L 325.000 112.500 318.750 112.500 L 312.500 112.500 312.500 118.750 M75.000 131.250 L 75.000 137.500 81.250 137.500 L 87.500 137.500 87.500 131.250 L 87.500 125.000 81.250 125.000 L 75.000 125.000 75.000 131.250 M275.000 131.250 L 275.000 137.500 268.750 137.500 L 262.500 137.500 262.500 143.750 L 262.500 150.000 268.750 150.000 L 275.000 150.000 275.000 143.750 L 275.000 137.500 281.250 137.500 L 287.500 137.500 287.500 131.250 L 287.500 125.000 281.250 125.000 L 275.000 125.000 275.000 131.250 M362.500 131.250 L 362.500 137.500 368.750 137.500 L 375.000 137.500 375.000 131.250 L 375.000 125.000 368.750 125.000 L 362.500 125.000 362.500 131.250 M100.000 143.750 L 100.000 150.000 93.750 150.000 L 87.500 150.000 87.500 156.250 L 87.500 162.500 81.250 162.500 L 75.000 162.500 75.000 168.750 L 75.000 175.000 81.250 175.000 L 87.500 175.000 87.500 181.250 L 87.500 187.500 93.750 187.500 L 100.000 187.500 100.000 168.750 L 100.000 150.000 106.250 150.000 L 112.500 150.000 112.500 143.750 L 112.500 137.500 106.250 137.500 L 100.000 137.500 100.000 143.750 M50.000 156.250 L 50.000 162.500 56.250 162.500 L 62.500 162.500 62.500 156.250 L 62.500 150.000 56.250 150.000 L 50.000 150.000 50.000 156.250 M162.500 168.750 L 162.500 175.000 156.250 175.000 L 150.000 175.000 150.000 181.250 L 150.000 187.500 156.250 187.500 L 162.500 187.500 162.500 181.250 L 162.500 175.000 175.000 175.000 L 187.500 175.000 187.500 168.750 L 187.500 162.500 175.000 162.500 L 162.500 162.500 162.500 168.750 M237.500 168.750 L 237.500 175.000 243.750 175.000 L 250.000 175.000 250.000 168.750 L 250.000 162.500 243.750 162.500 L 237.500 162.500 237.500 168.750 M287.500 168.750 L 287.500 175.000 293.750 175.000 L 300.000 175.000 300.000 168.750 L 300.000 162.500 293.750 162.500 L 287.500 162.500 287.500 168.750 M375.000 200.000 L 375.000 237.500 381.250 237.500 L 387.500 237.500 387.500 200.000 L 387.500 162.500 381.250 162.500 L 375.000 162.500 375.000 200.000 M175.000 193.750 L 175.000 200.000 181.250 200.000 L 187.500 200.000 187.500 193.750 L 187.500 187.500 181.250 187.500 L 175.000 187.500 175.000 193.750 M62.500 206.250 L 62.500 212.500 68.750 212.500 L 75.000 212.500 75.000 206.250 L 75.000 200.000 68.750 200.000 L 62.500 200.000 62.500 206.250 M125.000 218.750 L 125.000 225.000 131.250 225.000 L 137.500 225.000 137.500 237.500 L 137.500 250.000 156.250 250.000 L 175.000 250.000 175.000 243.750 L 175.000 237.500 168.750 237.500 L 162.500 237.500 162.500 231.250 L 162.500 225.000 156.250 225.000 L 150.000 225.000 150.000 218.750 L 150.000 212.500 137.500 212.500 L 125.000 212.500 125.000 218.750 M287.500 231.250 L 287.500 237.500 293.750 237.500 L 300.000 237.500 300.000 231.250 L 300.000 225.000 293.750 225.000 L 287.500 225.000 287.500 231.250 M362.500 262.500 L 362.500 275.000 368.750 275.000 L 375.000 275.000 375.000 262.500 L 375.000 250.000 368.750 250.000 L 362.500 250.000 362.500 262.500 M187.500 287.500 L 187.500 300.000 175.000 300.000 L 162.500 300.000 162.500 306.250 L 162.500 312.500 175.000 312.500 L 187.500 312.500 187.500 306.250 L 187.500 300.000 193.750 300.000 L 200.000 300.000 200.000 287.500 L 200.000 275.000 193.750 275.000 L 187.500 275.000 187.500 287.500 M125.000 293.750 L 125.000 300.000 131.250 300.000 L 137.500 300.000 137.500 312.500 L 137.500 325.000 125.000 325.000 L 112.500 325.000 112.500 318.750 L 112.500 312.500 106.250 312.500 L 100.000 312.500 100.000 318.750 L 100.000 325.000 106.250 325.000 L 112.500 325.000 112.500 331.250 L 112.500 337.500 125.000 337.500 L 137.500 337.500 137.500 331.250 L 137.500 325.000 143.750 325.000 L 150.000 325.000 150.000 312.500 L 150.000 300.000 143.750 300.000 L 137.500 300.000 137.500 293.750 L 137.500 287.500 131.250 287.500 L 125.000 287.500 125.000 293.750 M350.000 293.750 L 350.000 300.000 343.750 300.000 L 337.500 300.000 337.500 306.250 L 337.500 312.500 331.250 312.500 L 325.000 312.500 325.000 318.750 L 325.000 325.000 318.750 325.000 L 312.500 325.000 312.500 331.250 L 312.500 337.500 306.250 337.500 L 300.000 337.500 300.000 343.750 L 300.000 350.000 293.750 350.000 L 287.500 350.000 287.500 356.250 L 287.500 362.500 293.750 362.500 L 300.000 362.500 300.000 356.250 L 300.000 350.000 306.250 350.000 L 312.500 350.000 312.500 343.750 L 312.500 337.500 318.750 337.500 L 325.000 337.500 325.000 331.250 L 325.000 325.000 331.250 325.000 L 337.500 325.000 337.500 318.750 L 337.500 312.500 343.750 312.500 L 350.000 312.500 350.000 306.250 L 350.000 300.000 356.250 300.000 L 362.500 300.000 362.500 293.750 L 362.500 287.500 356.250 287.500 L 350.000 287.500 350.000 293.750 M37.500 306.250 L 37.500 312.500 43.750 312.500 L 50.000 312.500 50.000 318.750 L 50.000 325.000 56.250 325.000 L 62.500 325.000 62.500 331.250 L 62.500 337.500 68.750 337.500 L 75.000 337.500 75.000 343.750 L 75.000 350.000 81.250 350.000 L 87.500 350.000 87.500 356.250 L 87.500 362.500 93.750 362.500 L 100.000 362.500 100.000 356.250 L 100.000 350.000 93.750 350.000 L 87.500 350.000 87.500 343.750 L 87.500 337.500 81.250 337.500 L 75.000 337.500 75.000 331.250 L 75.000 325.000 68.750 325.000 L 62.500 325.000 62.500 318.750 L 62.500 312.500 56.250 312.500 L 50.000 312.500 50.000 306.250 L 50.000 300.000 43.750 300.000 L 37.500 300.000 37.500 306.250 M162.500 356.250 L 162.500 362.500 168.750 362.500 L 175.000 362.500 175.000 356.250 L 175.000 350.000 168.750 350.000 L 162.500 350.000 162.500 356.250 M112.500 368.750 L 112.500 375.000 118.750 375.000 L 125.000 375.000 125.000 368.750 L 125.000 362.500 118.750 362.500 L 112.500 362.500 112.500 368.750 M250.000 368.750 L 250.000 375.000 262.500 375.000 L 275.000 375.000 275.000 368.750 L 275.000 362.500 262.500 362.500 L 250.000 362.500 250.000 368.750 M150.000 381.250 L 150.000 387.500 193.750 387.500 L 237.500 387.500 237.500 381.250 L 237.500 375.000 193.750 375.000 L 150.000 375.000 150.000 381.250 " stroke="none" fill="#103e6a" fill-rule="evenodd"></path><path id="path8" d="M62.500 31.250 L 62.500 37.500 68.750 37.500 L 75.000 37.500 75.000 31.250 L 75.000 25.000 68.750 25.000 L 62.500 25.000 62.500 31.250 M112.500 81.250 L 112.500 87.500 125.000 87.500 L 137.500 87.500 137.500 81.250 L 137.500 75.000 125.000 75.000 L 112.500 75.000 112.500 81.250 M87.500 106.250 L 87.500 112.500 93.750 112.500 L 100.000 112.500 100.000 106.250 L 100.000 100.000 93.750 100.000 L 87.500 100.000 87.500 106.250 M250.000 118.750 L 250.000 125.000 256.250 125.000 L 262.500 125.000 262.500 131.250 L 262.500 137.500 268.750 137.500 L 275.000 137.500 275.000 131.250 L 275.000 125.000 268.750 125.000 L 262.500 125.000 262.500 118.750 L 262.500 112.500 256.250 112.500 L 250.000 112.500 250.000 118.750 M187.500 143.750 L 187.500 150.000 181.250 150.000 L 175.000 150.000 175.000 156.250 L 175.000 162.500 181.250 162.500 L 187.500 162.500 187.500 156.250 L 187.500 150.000 193.750 150.000 L 200.000 150.000 200.000 143.750 L 200.000 137.500 193.750 137.500 L 187.500 137.500 187.500 143.750 M212.500 156.250 L 212.500 162.500 218.750 162.500 L 225.000 162.500 225.000 156.250 L 225.000 150.000 218.750 150.000 L 212.500 150.000 212.500 156.250 M312.500 156.250 L 312.500 162.500 318.750 162.500 L 325.000 162.500 325.000 156.250 L 325.000 150.000 318.750 150.000 L 312.500 150.000 312.500 156.250 M337.500 175.000 L 337.500 187.500 343.750 187.500 L 350.000 187.500 350.000 175.000 L 350.000 162.500 343.750 162.500 L 337.500 162.500 337.500 175.000 M237.500 181.250 L 237.500 187.500 243.750 187.500 L 250.000 187.500 250.000 181.250 L 250.000 175.000 243.750 175.000 L 237.500 175.000 237.500 181.250 M275.000 181.250 L 275.000 187.500 268.750 187.500 L 262.500 187.500 262.500 193.750 L 262.500 200.000 268.750 200.000 L 275.000 200.000 275.000 193.750 L 275.000 187.500 281.250 187.500 L 287.500 187.500 287.500 181.250 L 287.500 175.000 281.250 175.000 L 275.000 175.000 275.000 181.250 M312.500 193.750 L 312.500 200.000 318.750 200.000 L 325.000 200.000 325.000 193.750 L 325.000 187.500 318.750 187.500 L 312.500 187.500 312.500 193.750 M287.500 218.750 L 287.500 225.000 293.750 225.000 L 300.000 225.000 300.000 218.750 L 300.000 212.500 293.750 212.500 L 287.500 212.500 287.500 218.750 " stroke="none" fill="#525078" fill-rule="evenodd"></path></g></svg>