<?xml version="1.0" encoding="UTF-8" standalone="no"?>
<svg
   xmlns:dc="http://purl.org/dc/elements/1.1/"
   xmlns:cc="http://creativecommons.org/ns#"
   xmlns:rdf="http://www.w3.org/1999/02/22-rdf-syntax-ns#"
   xmlns:svg="http://www.w3.org/2000/svg"
   xmlns="http://www.w3.org/2000/svg"
   viewBox="0 0 666.66669 333.33334"
   height="333.33334"
   width="666.66669"
   xml:space="preserve"
   id="svg2"
   version="1.1"><metadata
     id="metadata8"><rdf:RDF><cc:Work
         rdf:about=""><dc:format>image/svg+xml</dc:format><dc:type
           rdf:resource="http://purl.org/dc/dcmitype/StillImage" /></cc:Work></rdf:RDF></metadata><defs
     id="defs6"><clipPath
       id="clipPath18"
       clipPathUnits="userSpaceOnUse"><path
         id="path16"
         d="M 0,250 H 500 V 0 H 0 Z" /></clipPath><clipPath
       id="clipPath118"
       clipPathUnits="userSpaceOnUse"><path
         id="path116"
         d="M 0,250 H 500 V 0 H 0 Z" /></clipPath></defs><g
     transform="matrix(1.3333333,0,0,-1.3333333,0,333.33333)"
     id="g10"><g
       id="g12"><g
         clip-path="url(#clipPath18)"
         id="g14"><g
           transform="translate(287.5885,71.2367)"
           id="g20"><path
             id="path22"
             style="fill:none;stroke:#000000;stroke-width:1;stroke-linecap:butt;stroke-linejoin:miter;stroke-miterlimit:10;stroke-dasharray:none;stroke-opacity:1"
             d="M 0,0 C -0.068,-0.267 -0.123,-0.483 -0.123,-0.483" /></g><g
           transform="translate(291.9787,187.675)"
           id="g24"><path
             id="path26"
             style="fill:none;stroke:#000000;stroke-width:1;stroke-linecap:butt;stroke-linejoin:miter;stroke-miterlimit:10;stroke-dasharray:none;stroke-opacity:1"
             d="M 0,0 C -0.45,-1.763 -12.555,-0.191 -27.065,3.513" /></g><g
           transform="translate(81.116,136.9435)"
           id="g28"><path
             id="path30"
             style="fill:#858999;fill-opacity:1;fill-rule:nonzero;stroke:none"
             d="m 0,0 c 0,0 -17.496,-15.162 -5.928,-31.782 14.038,-20.167 74.699,-46.254 157.976,-68.203 86.926,-22.911 120.118,-24.164 120.118,-24.164 0,0 18.291,2.582 30.273,16.33 7.982,9.159 8.298,25.37 8.298,25.37 0,0 -5.59,-7.893 -30.426,-4.903 -24.835,2.99 -152.622,23.76 -209.973,48.937 C 12.987,-13.238 14.985,-14.532 7.163,-9.76 -0.66,-4.988 0,0 0,0" /></g><g
           transform="translate(83.0807,134.6763)"
           id="g32"><path
             id="path34"
             style="fill:#747784;fill-opacity:1;fill-rule:nonzero;stroke:none"
             d="m 0,0 c -8.788,-4.588 -13.972,-16.101 -9.335,-25.358 6.3,-13.142 27.702,-23.687 40.578,-30.046 50.196,-23.188 104.213,-36.806 157.964,-48.995 25.22,-5.427 50.531,-10.661 76.205,-13.185 1.623,-0.154 3.372,-0.274 4.939,-0.344 0,0 -0.703,-0.036 -0.703,-0.036 2.219,0.414 4.653,1.068 6.824,1.82 8.789,3.084 17.362,8.155 22.545,15.993 3.595,5.962 5.129,13.278 6.755,20.027 l 5.448,-1.792 c -1.38,-1.827 -3.433,-2.923 -5.429,-3.893 -5.159,-2.264 -10.874,-2.85 -16.327,-2.931 -3.494,-0.048 -7.209,0.219 -10.65,0.595 -44.413,6.002 -88.38,14.544 -132.023,24.736 -26.871,6.559 -53.646,13.51 -79.242,24.353 -15.437,7.078 -46.673,19.665 -61.46,27.525 -5.136,2.879 -11.037,7.184 -11.061,13.761 0.006,0.114 0.004,0.186 0.033,0.431 L 1.009,1.874 1.023,1.983 c -0.002,0.011 0,-0.009 0.001,-0.026 0,-0.131 0.024,-0.285 0.046,-0.438 0.691,-2.952 3.347,-4.971 5.89,-6.572 2.106,-1.303 4.292,-2.556 6.509,-3.62 11.987,-5.612 43.81,-19.265 56.481,-24.884 25.066,-10.622 51.766,-17.561 78.236,-24.016 39.999,-9.453 80.524,-17.149 121.177,-23.264 9.755,-1.374 19.924,-3.015 29.624,-0.902 2.671,0.546 5.627,1.74 7.337,3.291 0,-0.004 5.455,-1.787 5.447,-1.797 0.878,-8.555 -0.836,-17.116 -5.319,-24.534 -4.683,-7.166 -12.157,-12.452 -19.726,-16.037 -5.232,-2.409 -10.638,-4.183 -16.354,-5.039 -1.99,0.112 -3.8,0.299 -5.726,0.512 -25.932,3.126 -51.475,8.948 -76.795,15.148 -53.677,13.676 -107.48,28.769 -157.563,52.826 -13.276,6.876 -34.633,17.562 -41.077,31.357 -3.957,8.474 -0.764,18.098 3.757,25.708 1.043,1.688 1.871,3.17 3.103,4.838 C -3.929,4.534 0,0 0,0" /></g><g
           transform="translate(190.8384,237.8596)"
           id="g36"><path
             id="path38"
             style="fill:#bdc1d1;fill-opacity:1;fill-rule:nonzero;stroke:none"
             d="m 0,0 -106.403,-97.145 c 0,0 -9.823,-4.446 3.843,-13.531 13.666,-9.085 44.461,-28.921 122.017,-50.076 56.909,-15.523 82.435,-20.293 113.172,-26.341 27.662,-5.442 49.411,-2.545 54.731,-2.124 5.32,0.421 12.48,3.966 12.48,3.966 l 1.174,1.886 c 0,0 -0.083,1.274 -1.23,4.77 -1.148,3.496 -44.371,138.92 -44.371,138.92 0,0 -0.261,5.161 -10.748,11.07 C 134.178,-22.696 72.652,-0.094 42.489,3.943 27.512,5.948 30.34,5.638 25.983,6.058 11.455,7.455 9.122,7.225 5.156,4.084 Z" /></g><g
           transform="translate(188.8945,240.1446)"
           id="g40"><path
             id="path42"
             style="fill:#cfd4e2;fill-opacity:1;fill-rule:nonzero;stroke:none"
             d="m 0,0 4.179,3.32 c 1.291,1.007 2.988,2.506 5.213,3.31 4.074,1.442 7.733,0.93 11.69,0.771 3.62,-0.284 6.979,-0.559 10.622,-0.966 6.288,-0.86 14.885,-1.848 20.997,-3.065 24.217,-4.943 47.667,-12.883 70.829,-21.351 6.6,-2.471 13.152,-5.003 19.683,-7.896 6.632,-3.027 15.232,-7.743 17.088,-15.464 2.503,-8.438 7.729,-24.516 10.999,-35.728 10.029,-33.36 21.419,-70.578 33.16,-103.158 0.568,-1.703 1.256,-3.399 1.491,-5.228 v -1.43 l -0.447,-0.351 -1.858,-1.458 c 0,0 -0.744,-0.769 -0.744,-0.77 l -0.145,-0.037 c -4.521,-1.103 -8.592,-3.04 -13.246,-3.51 0,0 -2.589,-0.241 -2.589,-0.241 -19.217,-1.975 -38.765,-0.74 -57.646,3.334 -37.726,7.102 -75.188,15.872 -112.206,26.019 -33.701,9.279 -67.359,20.084 -98.456,36.316 -6.238,3.269 -12.361,6.82 -18.29,10.629 -4.946,3.25 -11.995,7.288 -11,14.316 0.653,2.833 2.541,4.693 4.979,5.941 C -109.835,-99.566 1.118,0.585 0,0 m 3.888,-4.57 -106.324,-97.076 c 0,0.001 -0.789,-0.519 -0.785,-0.517 l -0.245,-0.134 c -0.114,-0.069 -0.228,-0.143 -0.336,-0.22 -0.509,-0.303 -0.979,-0.921 -1.093,-1.339 -0.069,-0.811 0.296,-1.644 0.947,-2.437 1.731,-2.319 4.881,-4.269 7.354,-5.947 31.81,-21.102 68.409,-33.752 104.711,-44.902 40.085,-11.707 80.727,-21.915 121.757,-29.732 16.889,-3.635 34.344,-5.074 51.583,-3.774 3.35,0.3 6.862,0.422 10.182,1.053 3.192,0.705 6.513,1.957 9.172,4.024 0,0 -0.888,-0.806 -0.888,-0.806 l 0.489,2.312 -0.447,-1.78 c -0.098,1.947 -1.565,6.23 -2.115,8.418 -8.853,31.633 -21.015,67.393 -31.501,98.766 -4.029,12.167 -8.26,24.299 -11.989,36.55 -2.083,4.837 -8.401,8.451 -13.62,10.713 -25.575,10.763 -52.213,19.602 -79.092,26.51 -9.716,2.591 -20.705,3.975 -30.69,5.296 C 27.641,0.774 24.021,1.111 20.657,1.367 17.693,1.558 14.125,1.873 11.516,0.993 9.597,0.327 5.793,-3.207 3.888,-4.57" /></g><g
           transform="translate(331.4281,141.2949)"
           id="g44"><path
             id="path46"
             style="fill:#cfd4e2;fill-opacity:1;fill-rule:nonzero;stroke:none"
             d="M 0,0 3.24,4.272 1.468,28.22 -2.198,30.263 c -0.077,1.053 0.708,2.121 1.744,2.372 l 3.216,0.781 c 1.036,0.252 1.946,-0.404 2.022,-1.458 L 6.982,1.696 C 7.059,0.642 6.274,-0.425 5.238,-0.677 L 2.023,-1.458 C 0.987,-1.71 0.077,-1.053 0,0" /></g><g
           transform="translate(331.4281,141.2949)"
           id="g48"><path
             id="path50"
             style="fill:none;stroke:#cfd4e2;stroke-width:5;stroke-linecap:butt;stroke-linejoin:miter;stroke-miterlimit:10;stroke-dasharray:none;stroke-opacity:1"
             d="M 0,0 3.24,4.272 1.468,28.22 -2.198,30.263 c -0.077,1.053 0.708,2.121 1.744,2.372 l 3.216,0.781 c 1.036,0.252 1.946,-0.404 2.022,-1.458 L 6.982,1.696 C 7.059,0.642 6.274,-0.425 5.238,-0.677 L 2.023,-1.458 C 0.987,-1.71 0.077,-1.053 0,0 Z" /></g><g
           transform="translate(331.969,144.1434)"
           id="g52"><path
             id="path54"
             style="fill:#a7aec6;fill-opacity:1;fill-rule:nonzero;stroke:none"
             d="M 0,0 V 0 C -0.726,-0.176 -1.364,0.284 -1.418,1.022 L -3.03,23.214 c -0.053,0.738 0.497,1.487 1.223,1.663 0.726,0.177 1.364,-0.283 1.418,-1.022 L 1.223,1.663 C 1.276,0.925 0.726,0.176 0,0" /></g><g
           transform="translate(231.0698,105.5466)"
           id="g56"><path
             id="path58"
             style="fill:#bdc1d1;fill-opacity:1;fill-rule:nonzero;stroke:none"
             d="m 0,0 c 1.714,-7.132 -4.093,-14.795 -12.971,-17.116 -8.877,-2.322 -17.463,1.578 -19.177,8.711 -1.714,7.132 4.093,14.795 12.97,17.116 C -10.3,11.032 -1.714,7.132 0,0" /></g><g
           transform="translate(231.0698,105.5466)"
           id="g60"><path
             id="path62"
             style="fill:none;stroke:#a7aec6;stroke-width:3;stroke-linecap:butt;stroke-linejoin:miter;stroke-miterlimit:10;stroke-dasharray:none;stroke-opacity:1"
             d="m 0,0 c 1.714,-7.132 -4.093,-14.795 -12.971,-17.116 -8.877,-2.322 -17.463,1.578 -19.177,8.711 -1.714,7.132 4.093,14.795 12.97,17.116 C -10.3,11.032 -1.714,7.132 0,0 Z" /></g><g
           transform="translate(180.3538,120.8384)"
           id="g64"><path
             id="path66"
             style="fill:#a7aec6;fill-opacity:1;fill-rule:nonzero;stroke:none"
             d="m 0,0 c 1.739,-7.197 -3.32,-14.731 -11.299,-16.826 -7.979,-2.096 -15.857,2.04 -17.596,9.238 -1.739,7.197 3.32,14.73 11.299,16.826 C -9.617,11.333 -1.739,7.197 0,0" /></g><g
           transform="translate(180.3538,120.8384)"
           id="g68"><path
             id="path70"
             style="fill:none;stroke:#cfd4e2;stroke-width:5;stroke-linecap:butt;stroke-linejoin:miter;stroke-miterlimit:10;stroke-dasharray:none;stroke-opacity:1"
             d="m 0,0 c 1.739,-7.197 -3.32,-14.731 -11.299,-16.826 -7.979,-2.096 -15.857,2.04 -17.596,9.238 -1.739,7.197 3.32,14.73 11.299,16.826 C -9.617,11.333 -1.739,7.197 0,0 Z" /></g><g
           transform="translate(218.8084,233.1903)"
           id="g72"><path
             id="path74"
             style="fill:#a7aec6;fill-opacity:1;fill-rule:nonzero;stroke:none"
             d="m 0,0 c 40.521,-3.083 79.08,-22.366 79.08,-22.366 0,0 11.357,-3.641 8.77,-20.81 -2.586,-17.168 -10.456,-66.99 -10.456,-66.99 0,0 -1.842,-11.778 -27.344,-10.685 -27.827,1.191 -107.182,30.717 -107.182,30.717 0,0 -33.01,13.385 -16.689,33.607 16.322,20.222 35.709,39.421 35.709,39.421 0,0 17.037,18.71 38.112,17.106" /></g><g
           transform="translate(218.8084,233.1903)"
           id="g76"><path
             id="path78"
             style="fill:none;stroke:#cfd4e2;stroke-width:5;stroke-linecap:butt;stroke-linejoin:miter;stroke-miterlimit:10;stroke-dasharray:none;stroke-opacity:1"
             d="m 0,0 c 40.521,-3.083 79.08,-22.366 79.08,-22.366 0,0 11.357,-3.641 8.77,-20.81 -2.586,-17.168 -10.456,-66.99 -10.456,-66.99 0,0 -1.842,-11.778 -27.344,-10.685 -27.827,1.191 -107.182,30.717 -107.182,30.717 0,0 -33.01,13.385 -16.689,33.607 16.322,20.222 35.709,39.421 35.709,39.421 0,0 17.037,18.71 38.112,17.106 z" /></g><g
           transform="translate(219.5206,228.1101)"
           id="g80"><path
             id="path82"
             style="fill:#bdc1d1;fill-opacity:1;fill-rule:nonzero;stroke:none"
             d="m 0,0 c 36.821,-2.802 71.86,-20.324 71.86,-20.324 0,0 10.32,-3.308 7.969,-18.91 -2.35,-15.601 -9.501,-60.873 -9.501,-60.873 0,0 -1.674,-10.703 -24.848,-9.71 -25.286,1.083 -97.396,27.912 -97.396,27.912 0,0 -29.996,12.163 -15.165,30.539 14.832,18.376 32.449,35.821 32.449,35.821 0,0 15.481,17.002 34.632,15.545" /></g><g
           transform="translate(201.2049,156.5116)"
           id="g84"><path
             id="path86"
             style="fill:#cfd3e2;fill-opacity:1;fill-rule:nonzero;stroke:none"
             d="m 0,0 -25.729,33.016 3.061,8.799 40.634,9.818 -3.854,-11.074 -28.374,-6.665 18.115,-22.82 z" /></g><g
           transform="translate(201.2049,156.5116)"
           id="g88"><path
             id="path90"
             style="fill:none;stroke:#cfd4e2;stroke-width:3;stroke-linecap:butt;stroke-linejoin:miter;stroke-miterlimit:10;stroke-dasharray:none;stroke-opacity:1"
             d="m 0,0 -25.729,33.016 3.061,8.799 40.634,9.818 -3.854,-11.074 -28.374,-6.665 18.115,-22.82 z" /></g><g
           transform="translate(258.4259,204.1608)"
           id="g92"><path
             id="path94"
             style="fill:#cfd3e2;fill-opacity:1;fill-rule:nonzero;stroke:none"
             d="m 0,0 -44.938,-65.664 -7.624,2.666 44.858,65.691 z" /></g><g
           transform="translate(258.4259,204.1608)"
           id="g96"><path
             id="path98"
             style="fill:none;stroke:#cfd4e2;stroke-width:3;stroke-linecap:butt;stroke-linejoin:miter;stroke-miterlimit:10;stroke-dasharray:none;stroke-opacity:1"
             d="m 0,0 -44.938,-65.664 -7.624,2.666 44.858,65.691 z" /></g><g
           transform="translate(288.6275,149.9734)"
           id="g100"><path
             id="path102"
             style="fill:#cfd3e2;fill-opacity:1;fill-rule:nonzero;stroke:none"
             d="M 0,0 -40.634,-9.818 -36.781,1.257 -8.42,7.879 -26.522,30.741 -22.669,41.815 3.061,8.798 Z" /></g><g
           transform="translate(288.6275,149.9734)"
           id="g104"><path
             id="path106"
             style="fill:none;stroke:#cfd4e2;stroke-width:3;stroke-linecap:butt;stroke-linejoin:miter;stroke-miterlimit:10;stroke-dasharray:none;stroke-opacity:1"
             d="M 0,0 -40.634,-9.818 -36.781,1.257 -8.42,7.879 -26.522,30.741 -22.669,41.815 3.061,8.798 Z" /></g></g></g><g
       transform="translate(135.0018,47.2626)"
       id="g108"><path
         id="path110"
         style="fill:#cfd4e2;fill-opacity:1;fill-rule:nonzero;stroke:none"
         d="m 0,0 -0.586,-0.169 -130.989,-45.511 0.809,-0.216 419.194,-1.367 h 2.601 73.97 v 3.808 L 279.438,8.795 173.013,-3.718 172.712,-3.719 85.951,15.283 85.582,15.364 Z" /></g><g
       id="g112"><g
         clip-path="url(#clipPath118)"
         id="g114"><g
           transform="translate(414.4401,56.0576)"
           id="g120"><path
             id="path122"
             style="fill:none;stroke:#cfd4e2;stroke-width:1;stroke-linecap:butt;stroke-linejoin:miter;stroke-miterlimit:10;stroke-dasharray:none;stroke-opacity:1"
             d="m 0,0 -106.425,-12.513 -0.301,-10e-4 -86.762,19.002 -0.369,0.081 -85.581,-15.364 -0.587,-0.169 -130.988,-45.511 0.808,-0.216 419.194,-1.367 h 2.602 73.969 v 3.808 L 0,0" /></g></g></g></g></svg>